<svg xmlns="http://www.w3.org/2000/svg" fill="none" viewBox="0 0 32 32" height="32" width="32">
<g id="Frame 1171278152">
<circle fill="black" r="16" cy="16" cx="16" id="Ellipse 142"></circle>
<g id="Group 1171278143">
<path fill="#99FF00" d="M28.961 18.6528L28.5506 17.3179C28.4147 16.8753 27.9442 16.6261 27.5007 16.7621L26.1423 17.1794L27.3325 13.9416C27.3953 13.7699 27.4005 13.5791 27.3474 13.4049L26.9553 12.1301C26.8193 11.6875 26.3488 11.4383 25.9053 11.5742L20.9371 13.1025C20.8099 13.1417 20.6966 13.2088 20.6034 13.2977C20.619 13.2689 20.633 13.2393 20.6469 13.2097C20.863 12.7418 20.8848 12.1946 20.7114 11.6282L19.9525 9.15981C19.9098 9.01953 19.8314 8.89406 19.7251 8.79473C19.7564 8.6527 19.7512 8.50458 19.7076 8.36517L19.482 7.63239C18.9391 5.86797 17.6818 5.84706 16.7173 6.14244L13.997 6.9789C13.4446 7.14881 13.0255 7.41369 12.7502 7.7657C12.7145 7.73433 12.677 7.70645 12.6387 7.68293C12.433 7.55658 12.183 7.52435 11.9529 7.59492L9.4688 8.35471C9.24051 8.42442 9.05231 8.58822 8.95211 8.80518C8.94165 8.82784 8.93207 8.85136 8.92335 8.87837C8.53475 8.76074 8.08689 8.77817 7.58762 8.93152L3.59525 10.1531C3.38003 10.2185 3.20403 10.364 3.0986 10.5626C2.99317 10.7613 2.97139 10.9887 3.03761 11.203L5.0791 17.8416C5.14532 18.056 5.29083 18.232 5.48862 18.3374C5.56181 18.3757 5.63849 18.4036 5.71952 18.4193C5.56443 18.7321 5.44244 19.2261 5.6472 19.8918L5.98702 20.9958C6.16564 21.5761 6.43313 21.9577 6.82522 22.1886C6.7651 22.2487 6.71456 22.3167 6.67448 22.3916C6.56905 22.5903 6.54814 22.8177 6.61436 23.032L6.92891 24.0558C7.17898 24.8697 7.69131 25.24 8.07643 25.4073C8.32476 25.5153 8.59487 25.5719 8.87979 25.5763C9.14728 25.5806 9.42785 25.5388 9.71364 25.4517L12.3102 24.6527C12.8112 24.4985 13.2233 24.238 13.5065 23.8981C13.5317 23.9182 13.5579 23.9365 13.5832 23.9522C13.7888 24.0785 14.038 24.1099 14.2698 24.0393L19.1892 22.5371C19.6318 22.4012 19.8819 21.9298 19.7451 21.4872L19.5264 20.7753L21.0617 20.3031C21.4825 20.1733 21.8249 19.9624 22.0802 19.674L22.3878 20.6751C22.5237 21.1178 22.9943 21.367 23.4378 21.231L28.406 19.7027C28.6204 19.6365 28.7964 19.491 28.9018 19.2932C29.0072 19.0946 29.0281 18.8672 28.9628 18.6528H28.961Z" id="Vector"></path>
<path fill="black" d="M13.1048 17.1451C13.8492 17.1451 14.4527 16.5416 14.4527 15.7971C14.4527 15.0527 13.8492 14.4492 13.1048 14.4492C12.3603 14.4492 11.7568 15.0527 11.7568 15.7971C11.7568 16.5416 12.3603 17.1451 13.1048 17.1451Z" id="Vector_2"></path>
<path fill="black" d="M12.7124 21.1268C12.5025 20.4445 12.2567 20.245 11.5823 20.211L8.44299 20.1657L8.18421 19.3231L10.1403 18.7219L10.4122 19.6046L12.0868 19.0896L11.8333 18.2671C11.5588 17.374 11.1136 17.0054 10.068 17.3269L7.40438 18.146C6.59493 18.3952 6.20719 18.8544 6.45116 19.6473L6.79098 20.7512C6.98877 21.3934 7.25626 21.5851 7.91236 21.6365L11.0578 21.7018L11.3506 22.655L9.39447 23.2562L9.09212 22.2725L7.41745 22.7875L7.732 23.8113C7.99427 24.6643 8.70265 24.8856 9.46679 24.6504L12.0633 23.8514C12.9512 23.5786 13.2753 22.9513 13.0313 22.1584L12.7133 21.125L12.7124 21.1268Z" id="Vector_3"></path>
<path fill="black" d="M20.8386 15.3437C20.6008 14.5708 20.2296 14.2023 19.4315 14.4471L15.25 15.7332L17.2558 22.2559L18.9418 21.7374L18.4756 20.2222L20.8134 19.5034C21.6455 19.2472 21.8354 18.585 21.6498 17.9829L20.8386 15.3437ZM18.0809 18.9379L17.3464 16.5496L19.1901 15.9824L19.9246 18.3707L18.0809 18.9379Z" id="Vector_4"></path>
<path fill="black" d="M27.7491 17.5677L24.77 18.4835L26.5449 13.6537L26.1537 12.3799L21.1846 13.9073L21.595 15.2422L24.5627 14.329L22.7991 19.1552L23.1912 20.43L28.1595 18.9017L27.7491 17.5677Z" id="Vector_5"></path>
<path fill="black" d="M10.8269 14.8355L10.3991 13.444C10.2632 13.0023 10.0419 12.7627 9.63062 12.747C9.85977 12.5335 9.90073 12.2242 9.78658 11.853L9.39362 10.5739C9.16185 9.8211 8.74275 9.45689 7.83222 9.73745L3.83984 10.959L5.88134 17.5976L9.84932 16.3769C10.7825 16.0902 11.0029 15.4071 10.8269 14.8347V14.8355ZM5.91881 11.7197L7.72853 11.1629L8.17378 12.6119L6.36405 13.1687L5.91881 11.7197ZM7.17786 15.8149L6.72826 14.3528L8.65039 13.7621L9.09999 15.2241L7.17786 15.8149Z" id="Vector_6"></path>
<path fill="black" d="M14.565 13.51C14.8307 14.3726 15.4799 14.6454 16.3791 14.3691L18.9312 13.5841C19.9654 13.2661 20.1109 12.5403 19.9079 11.8781L19.149 9.40961L16.3163 10.2809L16.671 11.4346L17.8516 11.0712L18.2437 12.3459L16.2205 12.9681L15.0041 9.01229L17.0047 8.39714L17.2303 9.12992L18.905 8.61497L18.6793 7.88219C18.4049 6.98909 17.9431 6.64754 16.9646 6.94901L14.2443 7.78548C13.4462 8.03119 13.0245 8.50083 13.2963 9.38434L14.565 13.5109V13.51Z" id="Vector_7"></path>
<path fill="black" d="M13.2207 17.8371L14.1147 23.2105L16.415 22.503L14.2288 17.5034C14.0702 17.608 13.8942 17.6925 13.7025 17.7509C13.5422 17.7997 13.381 17.8275 13.2207 17.8371Z" id="Vector_8"></path>
<path fill="black" d="M12.9948 13.7568L12.1078 8.42871L9.80664 9.13274L11.9753 14.094C12.1357 13.9877 12.3134 13.9023 12.5069 13.8431C12.6689 13.7934 12.8327 13.7655 12.9948 13.7568Z" id="Vector_9"></path>
</g>
</g>
</svg>
