<svg width="200" height="39" viewBox="0 0 200 39" fill="none" xmlns="http://www.w3.org/2000/svg">
<path d="M19.2637 0.694458H23.8601V30.1332H19.2637V0.694458Z" fill="white"/>
<path d="M27.0059 8.68345H31.3287V12.377C32.6419 9.80518 35.159 8.30042 38.6336 8.30042C43.5036 8.30042 45.966 11.1732 45.966 15.9611V30.1332H41.479V16.6724C41.479 13.7176 39.7006 12.2675 37.1836 12.2675C33.9825 12.2675 31.4928 14.5931 31.4928 18.6149V30.1332H26.9785V8.68345H27.0059Z" fill="white"/>
<path d="M47.9902 23.4849H52.5319C52.997 26.002 55.2131 27.0143 58.0311 27.0143C60.6029 27.0143 62.1624 26.2208 62.1624 24.4151C62.1624 22.6094 60.5209 22.0075 58.25 21.5971L55.3499 21.1046C51.9574 20.4754 48.4827 19.2168 48.4827 14.7846C48.4827 10.4892 51.8479 8.30042 56.9641 8.30042C62.2719 8.30042 65.6644 10.626 66.1022 15.1129H61.6152C61.369 12.7874 59.5086 11.8024 56.8273 11.8024C54.2282 11.8024 52.8329 12.76 52.8329 14.4563C52.8329 16.3441 54.4471 16.946 56.6632 17.3564L59.6453 17.9036C63.0926 18.5328 66.5399 19.6272 66.5399 23.9226C66.5399 28.4643 62.6822 30.5983 57.867 30.5983C53.0517 30.5983 48.4827 28.4917 47.9902 23.4849Z" fill="white"/>
<path fill-rule="evenodd" clip-rule="evenodd" d="M73.272 8.68345H68.9492V38.2043H73.4362V26.6039C74.5579 28.4917 76.6646 30.1332 80.3307 30.1332C85.6385 30.1332 90.0433 26.7133 90.0433 19.1895C90.0433 11.8024 85.7205 8.30042 80.4949 8.30042C76.8561 8.30042 74.3117 10.1061 73.272 12.76V8.68345ZM85.447 19.1895C85.447 23.95 82.8478 26.002 79.4826 26.002C76.1721 26.002 73.3814 23.95 73.3814 19.1895C73.3814 14.4836 76.09 12.5138 79.4826 12.5138C82.8752 12.5138 85.447 14.511 85.447 19.1895Z" fill="white"/>
<path fill-rule="evenodd" clip-rule="evenodd" d="M97.0731 0.174683H92.2852V5.09938H97.0731V0.174683ZM96.9636 8.68346H92.4493V30.1333H96.9636V8.68346Z" fill="white"/>
<path d="M100.822 8.68349H105.145V12.6506C105.993 10.0788 107.908 8.43726 110.945 8.43726H112.724V12.8148H111.055C106.814 12.8148 105.337 15.496 105.337 19.6546V30.1333H100.822V8.68349Z" fill="white"/>
<path fill-rule="evenodd" clip-rule="evenodd" d="M120.686 17.8488C117.348 18.3139 113.818 19.7366 113.818 24.2783C113.818 28.4096 116.855 30.5983 120.959 30.5983C124.653 30.5983 127.224 28.9294 128.62 26.2755V30.1606H132.833V15.4412C132.833 10.5986 130.015 8.32776 124.242 8.32776C118.634 8.32776 114.995 10.5439 114.311 15.3044H118.77C119.208 13.143 120.85 11.8845 124.078 11.8845C126.924 11.8845 128.319 12.9241 128.319 14.8667C128.319 16.6177 127.006 17.0007 125.446 17.2196L120.686 17.8488ZM128.291 21.0499C128.291 24.5519 125.556 26.8227 122.026 26.8227C119.837 26.8227 118.36 25.8925 118.387 23.95C118.387 21.5971 120.521 21.1046 122.163 20.8857L124.981 20.5027C126.568 20.2565 127.498 20.0376 128.291 19.7093V21.0499Z" fill="white"/>
<path d="M138.196 24.2783V12.6232H134.201V8.68347H138.196V3.34838L142.71 2.08984V8.68347H147.361V12.6506H142.71V23.6217C142.71 25.4001 143.312 26.1935 145.118 26.1935H147.854V30.1333H144.051C140.193 30.1333 138.196 28.1907 138.196 24.2783Z" fill="white"/>
<path fill-rule="evenodd" clip-rule="evenodd" d="M155.075 0.174683H150.287V5.09938H155.075V0.174683ZM154.938 8.68346H150.451V30.1333H154.938V8.68346Z" fill="white"/>
<path fill-rule="evenodd" clip-rule="evenodd" d="M167.906 8.32776C161.586 8.32776 157.346 12.5138 157.346 19.463C157.346 26.385 161.586 30.5983 167.906 30.5983C174.226 30.5983 178.467 26.385 178.467 19.463C178.467 12.5411 174.226 8.32776 167.906 8.32776ZM173.871 19.4357C173.871 24.0321 171.436 26.385 167.906 26.385C164.377 26.385 161.915 24.0321 161.942 19.4357C161.942 14.8119 164.377 12.4864 167.906 12.4864C171.436 12.4864 173.871 14.8119 173.871 19.4357Z" fill="white"/>
<path d="M181.012 8.68345H185.335V12.377C186.648 9.80518 189.165 8.30042 192.667 8.30042C197.537 8.30042 199.999 11.1732 199.999 15.9611V30.1332H195.512V16.6724C195.512 13.7176 193.734 12.2675 191.217 12.2675C188.016 12.2675 185.526 14.5931 185.526 18.6149V30.1332H181.012V8.68345Z" fill="white"/>
<path d="M11.4662 21.9801L0.577147 23.3207C0.276194 23.3481 0.0299588 23.1566 0.00259936 22.8556C0.00259936 22.8283 0.00259936 22.8009 0.00259936 22.8009V17.8762C-0.0247601 17.63 0.166756 17.3837 0.44035 17.3564L11.3294 16.0431C11.6304 16.0158 11.8766 16.2073 11.9039 16.5082C11.9039 16.5356 11.9039 16.5629 11.9039 16.5629V21.4603C11.9039 21.7339 11.7124 21.9528 11.4662 21.9801Z" fill="#057ADC"/>
<path d="M11.9033 8.84762V13.745C11.9033 14.0185 11.7118 14.2374 11.4382 14.2648L0.576501 15.6054C0.275547 15.6328 0.0293126 15.4412 0.00195312 15.1403C0.00195312 15.1129 0.00195312 15.1129 0.00195312 15.0856V10.1882C0.00195312 9.91463 0.193469 9.69576 0.467063 9.6684L11.3288 8.32779C11.6297 8.30043 11.8759 8.49194 11.9033 8.7929C11.9033 8.82026 11.9033 8.84762 11.9033 8.84762Z" fill="#057ADC"/>
<path d="M0.44035 1.95305L11.3294 0.639799C11.6304 0.61244 11.8766 0.803956 11.9039 1.10491C11.9039 1.13227 11.9039 1.15963 11.9039 1.15963V6.05697C11.9039 6.33056 11.7124 6.54944 11.4388 6.57679L0.577147 7.91741C0.276194 7.94477 0.0299588 7.75325 0.00259936 7.4523C0.00259936 7.42494 0.00259936 7.39758 0.00259936 7.39758V2.47288C-0.0247601 2.22665 0.166756 1.98041 0.44035 1.95305Z" fill="#057ADC"/>
</svg>
